HIERARCHY
ROOT Hips
{
	OFFSET 0.000000 0.000000 0.000000
	CHANNELS 6 Xposition Yposition Zposition Zrotation Yrotation Xrotation 
	JOINT LHipJoint
	{
		OFFSET 0.000000 0.000000 0.000000
		CHANNELS 3 Zrotation Yrotation Xrotation
		JOINT LeftUpLeg
		{
			OFFSET 1.363060 -1.794630 0.839290
			CHANNELS 3 Zrotation Yrotation Xrotation
			JOINT LeftLeg
			{
				OFFSET 2.448110 -6.726130 0.000000
				CHANNELS 3 Zrotation Yrotation Xrotation
				JOINT LeftFoot
				{
					OFFSET 2.562200 -7.039590 0.000000
					CHANNELS 3 Zrotation Yrotation Xrotation
					JOINT LeftToeBase
					{
						OFFSET 0.157640 -0.433110 2.322550
						CHANNELS 3 Zrotation Yrotation Xrotation
						End Site
						{
							OFFSET 0.000000 0.000000 0.000000
						}
					}
				}
			}
		}
	}
	JOINT RHipJoint
	{
		OFFSET 0.000000 0.000000 0.000000
		CHANNELS 3 Zrotation Yrotation Xrotation
		JOINT RightUpLeg
		{
			OFFSET -1.305520 -1.794630 0.839290
			CHANNELS 3 Zrotation Yrotation Xrotation
			JOINT RightLeg
			{
				OFFSET -2.542530 -6.985550 0.000000
				CHANNELS 3 Zrotation Yrotation Xrotation
				JOINT RightFoot
				{
					OFFSET -2.568260 -7.056230 0.000000
					CHANNELS 3 Zrotation Yrotation Xrotation
					JOINT RightToeBase
					{
						OFFSET -0.164730 -0.452590 2.363150
						CHANNELS 3 Zrotation Yrotation Xrotation
						End Site
						{
							OFFSET 0.000000 0.000000 0.000000
						}
					}
				}
			}
		}
	}
	JOINT LowerBack
	{
		OFFSET 0.000000 0.000000 0.000000
		CHANNELS 3 Zrotation Yrotation Xrotation
		JOINT Spine
		{
			OFFSET 0.028270 2.035590 -0.193380
			CHANNELS 3 Zrotation Yrotation Xrotation
			JOINT Spine1
			{
				OFFSET 0.056720 2.048850 -0.042750
				CHANNELS 3 Zrotation Yrotation Xrotation
				JOINT Neck
				{
					OFFSET 0.000000 0.000000 0.000000
					CHANNELS 3 Zrotation Yrotation Xrotation
					JOINT Neck1
					{
						OFFSET -0.054170 1.746240 0.172020
						CHANNELS 3 Zrotation Yrotation Xrotation
						JOINT Head
						{
							OFFSET 0.104070 1.761360 -0.123970
							CHANNELS 3 Zrotation Yrotation Xrotation
							End Site
							{
								OFFSET 0.000000 0.000000 0.000000
							}
						}
					}
				}
				JOINT LeftShoulder
				{
					OFFSET 0.000000 0.000000 0.000000
					CHANNELS 3 Zrotation Yrotation Xrotation
					JOINT LeftArm
					{
						OFFSET 3.362410 1.200890 -0.311210
						CHANNELS 3 Zrotation Yrotation Xrotation
						JOINT LeftForeArm
						{
							OFFSET 4.983000 -0.000000 -0.000000
							CHANNELS 3 Zrotation Yrotation Xrotation
							JOINT LeftHand
							{
								OFFSET 3.483560 -0.000000 -0.000000
								CHANNELS 3 Zrotation Yrotation Xrotation
								JOINT LeftFingerBase
								{
									OFFSET 0.000000 0.000000 0.000000
									CHANNELS 3 Zrotation Yrotation Xrotation
									JOINT LeftHandIndex1
									{
										OFFSET 0.715260 -0.000000 -0.000000
										CHANNELS 3 Zrotation Yrotation Xrotation
										End Site
										{
											OFFSET 0.000000 0.000000 0.000000
										}
									}
								}
								JOINT LThumb
								{
									OFFSET 0.000000 0.000000 0.000000
									CHANNELS 3 Zrotation Yrotation Xrotation
									End Site
									{
										OFFSET 0.000000 0.000000 0.000000
									}
								}
							}
						}
					}
				}
				JOINT RightShoulder
				{
					OFFSET 0.000000 0.000000 0.000000
					CHANNELS 3 Zrotation Yrotation Xrotation
					JOINT RightArm
					{
						OFFSET -3.136600 1.374050 -0.404650
						CHANNELS 3 Zrotation Yrotation Xrotation
						JOINT RightForeArm
						{
							OFFSET -5.241900 -0.000000 -0.000000
							CHANNELS 3 Zrotation Yrotation Xrotation
							JOINT RightHand
							{
								OFFSET -3.444170 -0.000000 -0.000000
								CHANNELS 3 Zrotation Yrotation Xrotation
								JOINT RightFingerBase
								{
									OFFSET 0.000000 0.000000 0.000000
									CHANNELS 3 Zrotation Yrotation Xrotation
									JOINT RightHandIndex1
									{
										OFFSET -0.622530 -0.000000 -0.000000
										CHANNELS 3 Zrotation Yrotation Xrotation
										End Site
										{
											OFFSET 0.000000 0.000000 0.000000
										}
									}
								}
								JOINT RThumb
								{
									OFFSET 0.000000 0.000000 0.000000
									CHANNELS 3 Zrotation Yrotation Xrotation
									End Site
									{
										OFFSET 0.000000 0.000000 0.000000
									}
								}
							}
						}
					}
				}
			}
		}
	}
}
MOTION
Frames: 9
Frame Time: 0.033333
4.611907 17.449585 -27.276810 90.452987 -22.454053 -30.994564 -100.447279 -42.890614 63.789357 1.970182 -2.845625 -44.474766 -74.796068 64.617826 -70.053100 -13.412313 -4.406361 18.329744 0.500432 0.134672 -69.504166 40.397966 -11.761986 -106.611035 70.094817 -72.020625 -106.219675 119.689180 -50.950454 -116.840411 14.166533 -38.895224 -11.558961 0.740098 0.001046 -35.658355 -83.179478 62.850320 1.780672 165.982569 69.399563 168.685012 165.730022 68.318325 167.738850 7.854038 13.329188 11.414047 7.162414 -17.988314 -4.620119 0.223728 -0.101870 0.090764 90.614315 58.715980 -6.285617 48.310831 68.719845 -5.570649 -76.672623 37.505018 -144.460175 -38.491402 -17.414827 42.610164 28.046615 25.381703 5.649267 -0.128421 -0.156680 0.100532 0.194325 0.135923 -0.180443 39.611359 62.516764 70.849299 58.962934 13.275058 166.260411 -9.516539 -56.279266 49.977156 3.282272 -14.082177 -3.990710 -32.207001 0.064704 -174.465814 -0.183829 0.170839 -0.188710 -0.186564 -0.167101 -0.208379 
4.457268 17.564905 -26.687843 89.679662 -22.228465 -30.070141 -101.662941 -44.358871 63.622730 1.766687 -0.782838 -42.328955 -74.660513 64.186099 -68.426909 -10.491407 2.321797 27.156142 0.691887 0.160303 -69.562239 38.787408 -12.168453 -106.288464 79.654867 -70.898277 -116.944577 119.550377 -49.749767 -114.016201 14.823590 -38.777346 -11.533296 0.520196 0.033911 -33.174509 -83.979594 63.435337 0.364962 168.057078 68.735726 170.300959 161.515653 69.725592 161.711456 11.235091 21.596691 16.535231 6.066321 -21.439853 -4.376504 0.164608 -0.090416 0.122299 92.413442 58.118151 -4.319028 43.409876 69.267830 -11.140418 -72.365873 37.090050 -140.729229 -40.797767 -18.718660 30.389038 18.215367 24.194311 -8.461958 -0.147121 -0.126017 0.161346 0.158050 0.231178 -0.185428 43.638922 62.088557 76.468442 57.277613 15.729640 165.113422 -8.820243 -56.260952 52.399046 -0.018229 -12.961592 3.910855 -29.909030 5.457076 176.572237 -0.111102 0.175692 -0.148698 -0.207025 -0.134539 -0.176999 
4.279159 17.689343 -26.124699 89.229447 -22.401872 -30.676738 -101.711125 -44.908033 62.005260 3.532100 2.626531 -40.780265 -79.773843 65.672496 -65.713173 -16.077254 10.176245 26.993244 1.262771 0.248626 -67.830337 37.747637 -13.458464 -105.768948 82.784804 -70.003918 -121.082493 119.196069 -49.086023 -113.374066 18.193673 -38.583988 -13.781516 0.478919 -0.004906 -30.693807 -86.292351 65.572676 -0.959322 170.748515 70.381991 173.170646 168.105000 70.537721 166.164544 12.144648 20.779379 18.411335 8.083062 -20.575862 -1.588457 0.185037 -0.114662 0.122470 92.649027 57.652425 -5.479905 46.619748 69.288312 -10.317381 -72.719672 38.330587 -138.839859 -36.431064 -16.388112 24.646722 10.440829 24.300688 -17.879619 -0.162656 -0.146363 0.140080 0.183777 0.108314 -0.128763 49.906366 61.093696 81.061831 54.156555 18.348536 163.839035 -11.450113 -56.697288 57.225578 -1.504935 -7.284732 8.877907 -18.743694 11.292946 -170.607087 -0.154005 0.162669 -0.126234 -0.095592 -0.186952 -0.207472 
4.101165 17.803768 -25.590736 89.534671 -22.863238 -31.029059 -101.995459 -45.813650 61.972898 7.507620 6.336400 -40.668267 -85.955478 66.881369 -63.716016 -16.109188 12.019104 29.293313 1.549826 0.264723 -64.305771 36.695613 -13.822675 -105.104327 77.487241 -69.527419 -117.171147 120.200335 -48.003571 -116.146942 16.596286 -38.475150 -13.384116 0.597041 -0.007276 -31.663413 -91.134215 65.521472 -4.382814 174.436227 70.362064 176.254284 168.978660 72.051129 165.901206 10.766706 16.258521 17.355135 4.392730 -19.082064 2.407377 0.157185 -0.159170 0.148149 93.340414 56.802879 -4.734045 55.601074 70.682446 -1.621479 -71.555491 38.299354 -135.848183 -41.074499 -11.638043 25.792097 10.904999 25.204403 -16.823867 -0.133200 -0.126282 0.167820 0.136413 0.141662 -0.139304 54.576365 61.769102 85.375706 52.080405 21.275434 161.494522 -15.388383 -57.710416 64.968102 -0.804719 -3.039732 9.091580 -14.549162 11.748312 -156.478397 -0.106732 0.156092 -0.102855 -0.166884 -0.131283 -0.110921 
3.935486 17.903326 -25.089479 89.843221 -23.520572 -31.668669 -101.573490 -45.369409 62.191461 12.858519 8.886345 -41.597354 -97.385769 69.396663 -68.071040 -19.635315 10.246299 23.232620 1.585786 0.234814 -60.293304 37.893429 -12.905734 -105.835630 68.234574 -69.139899 -109.142067 121.135289 -46.982734 -117.913370 13.717507 -37.763076 -11.101634 0.837345 -0.026810 -33.371181 -93.963084 65.543974 -6.727858 175.614698 70.770911 177.785487 171.785722 72.848458 168.479710 7.273965 12.732033 14.042017 6.003078 -15.121406 7.404595 0.090754 -0.116188 0.157355 95.278982 54.949059 -3.955328 72.792177 71.136277 16.672920 -71.905689 37.564177 -135.265075 -47.652696 -8.797276 32.086367 7.798783 27.961174 -7.194213 -0.130112 -0.157857 0.105135 0.133926 0.117443 -0.108486 57.884817 62.524729 87.160318 49.405022 23.410436 158.439551 -20.902301 -57.681587 73.190483 2.278164 4.359166 5.852707 -10.603728 10.947829 -147.705535 -0.107764 0.097976 -0.114957 -0.111490 -0.112304 -0.179669 
3.771840 17.990048 -24.620636 90.612375 -24.393533 -32.863480 -100.959132 -44.152477 61.610352 18.249826 11.952102 -42.349698 -107.881952 70.986051 -72.576869 -18.939916 4.892178 11.705440 1.238131 0.186253 -56.910130 39.289790 -11.687803 -107.160022 59.165150 -68.111381 -101.317861 121.278948 -46.356279 -120.114945 8.205167 -35.614831 -7.207122 1.168133 0.019808 -35.858160 -98.683033 65.409336 -11.366849 174.310353 71.444653 175.978097 167.885764 72.956089 165.113226 6.619057 13.819376 13.332275 5.398404 -14.759838 10.993993 0.119316 -0.110992 0.122762 96.466070 52.239030 -1.629034 96.199362 70.977675 38.835610 -69.499570 37.104701 -132.688536 -59.351078 1.724365 30.037645 10.586744 31.084068 0.040345 -0.061953 -0.132249 0.087279 0.108707 0.140782 -0.092649 58.505396 63.172472 88.851853 46.261987 27.204946 155.207677 -22.997050 -56.591911 78.904474 -1.298575 7.379553 5.420810 -10.894759 12.465426 -154.726320 -0.084313 0.126668 -0.094410 -0.083914 -0.113358 -0.079328 
3.604323 18.061215 -24.170683 91.207693 -24.653209 -33.539009 -99.860442 -42.923662 60.552350 22.094332 14.092583 -43.183474 -109.280657 71.637658 -71.260799 -14.271094 2.441430 0.976104 1.217759 0.173872 -52.804616 40.357607 -11.648228 -108.630111 53.389800 -66.191919 -96.514961 120.709608 -46.835199 -122.672066 3.821181 -33.601665 -5.015028 1.249693 0.009987 -36.283246 -102.072623 65.333240 -15.253789 173.179006 71.438590 174.445433 171.158565 74.167923 168.074639 6.542941 14.199978 13.516784 9.225112 -20.412046 7.704509 0.120136 -0.089674 0.088870 98.614390 52.293910 3.172921 112.592697 70.361085 54.177631 -68.689007 36.678739 -129.501231 -53.260177 3.527844 33.578910 3.281375 27.107378 2.985282 -0.083109 -0.121872 0.091961 0.085326 0.128208 -0.114925 59.638840 62.801145 88.790758 43.315891 32.425164 154.069048 -21.406093 -57.262394 79.368998 -1.831983 13.275929 6.489951 -7.439512 19.164851 -145.692007 -0.085575 0.057072 -0.053336 -0.079445 -0.081271 -0.146930 
3.443361 18.110312 -23.721451 90.850636 -25.110752 -33.307403 -97.788671 -43.249435 59.156688 23.064444 15.332510 -43.776419 -102.058945 71.705380 -65.627861 -10.708780 6.039354 -2.457745 1.053391 0.198023 -51.362618 40.968412 -12.358573 -110.821392 51.309326 -64.961399 -96.271671 122.139406 -47.940331 -128.846595 -0.287556 -29.915803 -2.839467 1.295413 0.037760 -37.716395 -106.289780 66.053118 -19.933557 175.147445 71.628516 176.718942 177.236192 74.897573 173.362394 5.340360 11.631923 14.191365 13.523242 -11.594564 4.669305 0.065255 -0.095180 0.104745 97.617671 51.829206 5.146503 130.680325 68.344018 71.927868 -67.131097 34.687939 -124.654214 -46.317574 2.693035 40.924394 2.040026 19.248445 1.436487 -0.080211 -0.111615 0.090906 0.070221 0.104719 -0.100640 59.421607 62.271945 87.332780 41.404174 37.379670 152.906077 -21.228092 -57.943133 80.867511 -1.102407 17.871384 10.033510 -9.341376 22.848774 -132.175935 -0.098323 0.107245 -0.079146 -0.106705 -0.071285 -0.110360 
3.298543 18.134119 -23.263878 91.373785 -25.312606 -34.110405 -95.578556 -43.194483 57.760651 21.951931 15.556254 -45.591776 -93.601762 71.980121 -63.211189 -10.065575 4.970366 -2.894255 0.947466 0.241462 -49.847483 40.874050 -13.255499 -112.854990 51.476741 -63.988400 -97.468855 122.408995 -48.737854 -132.905568 -1.494600 -26.348516 -1.756213 1.559880 -0.024815 -39.021589 -110.184371 66.963652 -23.790581 176.839514 71.170186 177.248164 173.622019 74.294708 168.528338 7.987053 10.388004 12.814538 8.592120 -7.608470 6.590463 0.127594 -0.065036 0.085571 96.343940 52.308909 8.673697 143.174077 67.860015 85.416570 -65.631966 33.185062 -119.850347 -38.454675 3.692539 46.351726 0.702627 10.413130 4.442340 -0.025686 -0.156059 0.071823 0.097419 0.085698 -0.065047 55.539225 61.344807 84.615720 40.379116 43.440826 152.288728 -25.345050 -59.357432 85.953225 -0.807878 23.381487 14.496317 -12.006303 23.788943 -116.181649 -0.053276 0.091319 -0.057427 -0.070536 -0.015383 -0.139821 
